<svg xmlns="http://www.w3.org/2000/svg" width="84.648" height="153.991" viewBox="0 0 22.396 40.743">
  <defs>
    <clipPath id="a">
      <path d="M353.195 488.977H439v116.062h-85.805zm0 0"/>
    </clipPath>
  </defs>
  <g transform="translate(-124.6 -172.5) scale(.35278)" clip-path="url(#a)">
    <path d="M353.543 600.96V492.485c0-1.746 1.426-3.164 3.184-3.164h56.43c1.757 0 3.183 1.418 3.183 3.164v108.477c0 1.746-1.426 3.164-3.184 3.164h-56.43c-1.757 0-3.183-1.418-3.183-3.164zm0 0" fill="none" stroke="#211e1e" stroke-width=".689" stroke-miterlimit="22.926"/>
  </g>
  <path d="M3.631 19.53h15.155c.253 0 .46-.148.46-.328V7.976c0-.18-.207-.328-.46-.328H3.63c-.253 0-.458.148-.458.328v11.226c0 .18.205.328.458.328zm0 0" fill="none" stroke="#bdbaba" stroke-width=".032" stroke-miterlimit="22.926"/>
  <path d="M3.62 7.645c-.253 0-.46.146-.46.328V19.2c0 .18.207.328.46.328v-.001h15.155c.253 0 .46-.148.46-.328V7.973c0-.182-.207-.328-.46-.328H3.62zm.95.353h13.277V19.18H4.57V7.998z" fill-rule="evenodd"/>
  <path d="M3.62 19.527h15.155c.253 0 .46-.148.46-.328V7.973c0-.182-.207-.328-.46-.328H3.62c-.253 0-.46.146-.46.328V19.2c0 .18.207.328.46.328zm0 0" fill="none" stroke="#a6a3a6" stroke-width=".032" stroke-miterlimit="22.926"/>
  <path d="M13.205 37.038v.168H9.21v-.07c0-.054.044-.098.099-.098zM9.21 38.585v.168h3.895c.056 0 .1-.044.1-.099v-.069zm3.995-.164h-.208v-.47h-.525v.47h-.207v-.47h-.324v.47h-.207v-.47h-.206v-.161h.206v-.42h.207v.365c0 .03.025.055.055.055h.269v-.42h.206v.42h.634a.1.1 0 01.1.098zm-2.632-.47l-.11-.161h.954v.532a.1.1 0 01-.097.1h-.856a.098.098 0 01-.098-.1v-.434c0-.054.043-.098.098-.098l.109.161h.638v.309h-.638zm-.524-.161h-.633v.161h.155l.488.47h.301l-.487-.47h.285a.099.099 0 00.098-.099v-.383a.1.1 0 00-.098-.1H9.21v1.052h.206v-.89h.633zm7.378-12.883l-.786-.784-.183.181.969.97.969-.97-.184-.181-.785.785zm-.525 6.724l-.185-.183.527-.526-.534-.533.184-.184.533.534.52-.52.184.183-.52.52.52.52-.185.184-.52-.52zm-5.886-.341l-.52-.473-.171.178.723.661.995-1.32-.193-.153zm-6.833-6.026l-.184-.184.97-.968.968.968-.183.184-.785-.786zm1.565 4.876v.26H4.17v-.26h1.578zm-.001.643v.26H4.17v-.26zm0 .64v.262H4.17v-.259h1.577zm5.764-7.138h.25a.559.559 0 01-.101.324.915.915 0 01.452.79h-1.829c0-.24.094-.479.279-.658a.751.751 0 00.177.178.64.64 0 00-.158.238h1.235a.665.665 0 00-.36-.37.563.563 0 11.306-.502h-.251a.312.312 0 00-.623 0 .311.311 0 10.623 0" fill-rule="evenodd"/>
</svg>
