<svg xmlns="http://www.w3.org/2000/svg" width="2426.474" height="989.165" viewBox="0 0 642.005 261.717">
  <path d="M0 0h642.005v25.037H0zm0 236.676h642.005v25.04H0zM29.762 82.67h113.853v31.653H29.762zM.003 52.438h171.95v92.12h-58.865l85.326 61.883h-51.49l-85.327-61.882H29.766v61.882H0zm216.842 61.882h162.493v92.12H216.845zm28.338 61.888H351v-31.65H245.183zm153.063-61.885h25.977V52.435h30.709v61.888h46.292V52.435h30.71v61.888h110.07v92.118h-25.51v-61.882H531.93v61.882h-30.71v-61.882h-46.292v61.882H424.22v-61.882h-25.977v-30.236z" clip-rule="evenodd" fill="#cc2229" fill-rule="evenodd"/>
</svg>
